<svg aria-roledescription="er" role="graphics-document document" viewBox="0 0 1441.238037109375 465" style="max-width: 1441.24px; background-color: white;" xmlns:xlink="http://www.w3.org/1999/xlink" xmlns="http://www.w3.org/2000/svg" width="100%" id="my-svg"><style>#my-svg{font-family:"trebuchet ms",verdana,arial,sans-serif;font-size:16px;fill:#333;}#my-svg .error-icon{fill:#552222;}#my-svg .error-text{fill:#552222;stroke:#552222;}#my-svg .edge-thickness-normal{stroke-width:2px;}#my-svg .edge-thickness-thick{stroke-width:3.5px;}#my-svg .edge-pattern-solid{stroke-dasharray:0;}#my-svg .edge-pattern-dashed{stroke-dasharray:3;}#my-svg .edge-pattern-dotted{stroke-dasharray:2;}#my-svg .marker{fill:#333333;stroke:#333333;}#my-svg .marker.cross{stroke:#333333;}#my-svg svg{font-family:"trebuchet ms",verdana,arial,sans-serif;font-size:16px;}#my-svg .entityBox{fill:#ECECFF;stroke:#9370DB;}#my-svg .attributeBoxOdd{fill:#ffffff;stroke:#9370DB;}#my-svg .attributeBoxEven{fill:#f2f2f2;stroke:#9370DB;}#my-svg .relationshipLabelBox{fill:hsl(80, 100%, 96.2745098039%);opacity:0.7;background-color:hsl(80, 100%, 96.2745098039%);}#my-svg .relationshipLabelBox rect{opacity:0.5;}#my-svg .relationshipLine{stroke:#333333;}#my-svg .entityTitleText{text-anchor:middle;font-size:18px;fill:#333;}#my-svg #MD_PARENT_START{fill:#f5f5f5!important;stroke:#333333!important;stroke-width:1;}#my-svg #MD_PARENT_END{fill:#f5f5f5!important;stroke:#333333!important;stroke-width:1;}#my-svg :root{--mermaid-font-family:"trebuchet ms",verdana,arial,sans-serif;}</style><g/><defs><marker orient="auto" markerHeight="240" markerWidth="190" refY="7" refX="0" id="MD_PARENT_START"><path d="M 18,7 L9,13 L1,7 L9,1 Z"/></marker></defs><defs><marker orient="auto" markerHeight="28" markerWidth="20" refY="7" refX="19" id="MD_PARENT_END"><path d="M 18,7 L9,13 L1,7 L9,1 Z"/></marker></defs><defs><marker orient="auto" markerHeight="18" markerWidth="18" refY="9" refX="0" id="ONLY_ONE_START"><path d="M9,0 L9,18 M15,0 L15,18" fill="none" stroke="gray"/></marker></defs><defs><marker orient="auto" markerHeight="18" markerWidth="18" refY="9" refX="18" id="ONLY_ONE_END"><path d="M3,0 L3,18 M9,0 L9,18" fill="none" stroke="gray"/></marker></defs><defs><marker orient="auto" markerHeight="18" markerWidth="30" refY="9" refX="0" id="ZERO_OR_ONE_START"><circle r="6" cy="9" cx="21" fill="white" stroke="gray"/><path d="M9,0 L9,18" fill="none" stroke="gray"/></marker></defs><defs><marker orient="auto" markerHeight="18" markerWidth="30" refY="9" refX="30" id="ZERO_OR_ONE_END"><circle r="6" cy="9" cx="9" fill="white" stroke="gray"/><path d="M21,0 L21,18" fill="none" stroke="gray"/></marker></defs><defs><marker orient="auto" markerHeight="36" markerWidth="45" refY="18" refX="18" id="ONE_OR_MORE_START"><path d="M0,18 Q 18,0 36,18 Q 18,36 0,18 M42,9 L42,27" fill="none" stroke="gray"/></marker></defs><defs><marker orient="auto" markerHeight="36" markerWidth="45" refY="18" refX="27" id="ONE_OR_MORE_END"><path d="M3,9 L3,27 M9,18 Q27,0 45,18 Q27,36 9,18" fill="none" stroke="gray"/></marker></defs><defs><marker orient="auto" markerHeight="36" markerWidth="57" refY="18" refX="18" id="ZERO_OR_MORE_START"><circle r="6" cy="18" cx="48" fill="white" stroke="gray"/><path d="M0,18 Q18,0 36,18 Q18,36 0,18" fill="none" stroke="gray"/></marker></defs><defs><marker orient="auto" markerHeight="36" markerWidth="57" refY="18" refX="39" id="ZERO_OR_MORE_END"><circle r="6" cy="18" cx="9" fill="white" stroke="gray"/><path d="M21,18 Q39,0 57,18 Q39,36 21,18" fill="none" stroke="gray"/></marker></defs><path style="stroke: gray; fill: none;" marker-start="url(#ONLY_ONE_START)" marker-end="url(#ONLY_ONE_END)" d="M741.924,95L732.4,103.333C722.876,111.667,703.829,128.333,694.305,145C684.781,161.667,684.781,178.333,684.781,186.667L684.781,195" class="er relationshipLine"/><path style="stroke: gray; fill: none;" marker-start="url(#ONLY_ONE_START)" marker-end="url(#ZERO_OR_MORE_END)" d="M72.094,95L72.094,103.333C72.094,111.667,72.094,128.333,81.969,145C91.845,161.667,111.597,178.333,121.472,186.667L131.348,195" class="er relationshipLine"/><path style="stroke: gray; fill: none;" marker-start="url(#ONLY_ONE_START)" marker-end="url(#ZERO_OR_MORE_END)" d="M279.484,95L279.484,103.333C279.484,111.667,279.484,128.333,269.609,145C259.733,161.667,239.981,178.333,230.106,186.667L220.23,195" class="er relationshipLine"/><path style="stroke: gray; fill: none;" marker-start="url(#ONLY_ONE_START)" marker-end="url(#ZERO_OR_MORE_END)" d="M784.781,95L784.781,103.333C784.781,111.667,784.781,128.333,691.616,150.053C598.451,171.772,412.12,198.544,318.954,211.93L225.789,225.316" class="er relationshipLine"/><path style="stroke: gray; fill: none;" marker-start="url(#ONLY_ONE_START)" marker-end="url(#ZERO_OR_MORE_END)" d="M484.781,95L484.781,103.333C484.781,111.667,484.781,128.333,484.781,145C484.781,161.667,484.781,178.333,484.781,186.667L484.781,195" class="er relationshipLine"/><path style="stroke: gray; fill: none;" marker-start="url(#ONLY_ONE_START)" marker-end="url(#ZERO_OR_MORE_END)" d="M834.781,240.091L747.063,253.409C659.344,266.728,483.906,293.364,396.188,315.015C308.469,336.667,308.469,353.333,308.469,361.667L308.469,370" class="er relationshipLine"/><path style="stroke: gray; fill: none;" marker-start="url(#ONLY_ONE_START)" marker-end="url(#ZERO_OR_MORE_END)" d="M834.781,244.646L783.081,257.205C731.38,269.764,627.979,294.882,576.279,315.774C524.578,336.667,524.578,353.333,524.578,361.667L524.578,370" class="er relationshipLine"/><path style="stroke: gray; fill: none;" marker-start="url(#ONLY_ONE_START)" marker-end="url(#ZERO_OR_MORE_END)" d="M834.781,261.667L818.115,271.389C801.448,281.111,768.115,300.556,757.5,318.611C746.885,336.667,758.988,353.333,765.04,361.667L771.092,370" class="er relationshipLine"/><path style="stroke: gray; fill: none;" marker-start="url(#ONLY_ONE_START)" marker-end="url(#ZERO_OR_MORE_END)" d="M932.549,270L943.164,278.333C953.778,286.667,975.008,303.333,1014.79,323.009C1054.572,342.685,1112.905,365.37,1142.072,376.713L1171.238,388.056" class="er relationshipLine"/><path style="stroke: gray; fill: none;" marker-start="url(#ONLY_ONE_START)" marker-end="url(#ZERO_OR_MORE_END)" d="M934.781,253.19L961.691,264.325C988.6,275.46,1042.419,297.73,1061.575,317.198C1080.731,336.667,1065.223,353.333,1057.47,361.667L1049.716,370" class="er relationshipLine"/><path style="stroke: gray; fill: none;" marker-start="url(#ONLY_ONE_START)" marker-end="url(#ZERO_OR_MORE_END)" d="M934.781,246.547L978.357,258.789C1021.934,271.031,1109.086,295.516,1131.829,317.806C1154.572,340.097,1112.905,360.194,1092.072,370.242L1071.238,380.29" class="er relationshipLine"/><path style="stroke: gray; fill: none;" marker-start="url(#ONLY_ONE_START)" marker-end="url(#ZERO_OR_MORE_END)" d="M827.638,95L837.162,103.333C846.686,111.667,865.734,128.333,875.257,145C884.781,161.667,884.781,178.333,884.781,186.667L884.781,195" class="er relationshipLine"/><path style="stroke: gray; fill: none;" marker-start="url(#ONLY_ONE_START)" marker-end="url(#ZERO_OR_MORE_END)" d="M834.781,65.655L915.857,78.879C996.934,92.104,1159.086,118.552,1240.162,146.359C1321.238,174.167,1321.238,203.333,1321.238,232.5C1321.238,261.667,1321.238,290.833,1244.1,318.324C1166.962,345.815,1012.686,371.63,935.548,384.538L858.41,397.446" class="er relationshipLine"/><path style="stroke: gray; fill: none;" marker-start="url(#ONLY_ONE_START)" marker-end="url(#ZERO_OR_MORE_END)" d="M834.781,64.374L932.524,77.812C1030.267,91.249,1225.753,118.125,1323.495,146.146C1421.238,174.167,1421.238,203.333,1421.238,232.5C1421.238,261.667,1421.238,290.833,1396.238,316.354C1371.238,341.875,1321.238,363.75,1296.238,374.688L1271.238,385.625" class="er relationshipLine"/><g transform="translate(734.78125,20 )" id="entity-User-818c511a-4a32-5484-ba70-875d765a9175"><rect height="75" width="100" y="0" x="0" class="er entityBox"/><text style="dominant-baseline: middle; text-anchor: middle; font-size: 12px;" transform="translate(50,37.5)" y="0" x="0" id="text-entity-User-818c511a-4a32-5484-ba70-875d765a9175" class="er entityLabel">User</text></g><g transform="translate(634.78125,195 )" id="entity-UserProfile-aeaab73e-960c-5979-ae10-72dcaf1725c1"><rect height="75" width="100" y="0" x="0" class="er entityBox"/><text style="dominant-baseline: middle; text-anchor: middle; font-size: 12px;" transform="translate(50,37.5)" y="0" x="0" id="text-entity-UserProfile-aeaab73e-960c-5979-ae10-72dcaf1725c1" class="er entityLabel">UserProfile</text></g><g transform="translate(20,20 )" id="entity-ActivityStatus-20029805-93ef-56ca-af06-4cc813811532"><rect height="75" width="104.1875" y="0" x="0" class="er entityBox"/><text style="dominant-baseline: middle; text-anchor: middle; font-size: 12px;" transform="translate(52.09375,37.5)" y="0" x="0" id="text-entity-ActivityStatus-20029805-93ef-56ca-af06-4cc813811532" class="er entityLabel">ActivityStatus</text></g><g transform="translate(125.7890625,195 )" id="entity-Activity-11fee013-deaf-5d98-8fab-b92585bcaa6a"><rect height="75" width="100" y="0" x="0" class="er entityBox"/><text style="dominant-baseline: middle; text-anchor: middle; font-size: 12px;" transform="translate(50,37.5)" y="0" x="0" id="text-entity-Activity-11fee013-deaf-5d98-8fab-b92585bcaa6a" class="er entityLabel">Activity</text></g><g transform="translate(224.1875,20 )" id="entity-ActivityPriority-f408e454-c161-5772-a5ca-a0686b878885"><rect height="75" width="110.59375" y="0" x="0" class="er entityBox"/><text style="dominant-baseline: middle; text-anchor: middle; font-size: 12px;" transform="translate(55.296875,37.5)" y="0" x="0" id="text-entity-ActivityPriority-f408e454-c161-5772-a5ca-a0686b878885" class="er entityLabel">ActivityPriority</text></g><g transform="translate(434.78125,20 )" id="entity-Chat-28de1b5f-1ec4-5e23-9075-f668c8ae6d11"><rect height="75" width="100" y="0" x="0" class="er entityBox"/><text style="dominant-baseline: middle; text-anchor: middle; font-size: 12px;" transform="translate(50,37.5)" y="0" x="0" id="text-entity-Chat-28de1b5f-1ec4-5e23-9075-f668c8ae6d11" class="er entityLabel">Chat</text></g><g transform="translate(434.78125,195 )" id="entity-Message-a3849f5f-6e30-5367-9632-ff041b746560"><rect height="75" width="100" y="0" x="0" class="er entityBox"/><text style="dominant-baseline: middle; text-anchor: middle; font-size: 12px;" transform="translate(50,37.5)" y="0" x="0" id="text-entity-Message-a3849f5f-6e30-5367-9632-ff041b746560" class="er entityLabel">Message</text></g><g transform="translate(834.78125,195 )" id="entity-Update-f5213433-cbcc-56f8-90f4-eee6e28c1036"><rect height="75" width="100" y="0" x="0" class="er entityBox"/><text style="dominant-baseline: middle; text-anchor: middle; font-size: 12px;" transform="translate(50,37.5)" y="0" x="0" id="text-entity-Update-f5213433-cbcc-56f8-90f4-eee6e28c1036" class="er entityLabel">Update</text></g><g transform="translate(242.4765625,370 )" id="entity-UpdateAttachment-ad2a1b76-8221-5e47-9375-a8a2d60d0846"><rect height="75" width="131.984375" y="0" x="0" class="er entityBox"/><text style="dominant-baseline: middle; text-anchor: middle; font-size: 12px;" transform="translate(65.9921875,37.5)" y="0" x="0" id="text-entity-UpdateAttachment-ad2a1b76-8221-5e47-9375-a8a2d60d0846" class="er entityLabel">UpdateAttachment</text></g><g transform="translate(474.4609375,370 )" id="entity-UpdateMedia-47544411-1284-5981-bc89-e9e8780db075"><rect height="75" width="100.234375" y="0" x="0" class="er entityBox"/><text style="dominant-baseline: middle; text-anchor: middle; font-size: 12px;" transform="translate(50.1171875,37.5)" y="0" x="0" id="text-entity-UpdateMedia-47544411-1284-5981-bc89-e9e8780db075" class="er entityLabel">UpdateMedia</text></g><g transform="translate(738.23828125,370 )" id="entity-UpdateComment-77b6ff1c-9bfa-5633-a1f6-386ea9dbbc89"><rect height="75" width="120.171875" y="0" x="0" class="er entityBox"/><text style="dominant-baseline: middle; text-anchor: middle; font-size: 12px;" transform="translate(60.0859375,37.5)" y="0" x="0" id="text-entity-UpdateComment-77b6ff1c-9bfa-5633-a1f6-386ea9dbbc89" class="er entityLabel">UpdateComment</text></g><g transform="translate(1171.23828125,370 )" id="entity-UpdateLike-433c5fbc-5c28-57f3-8fc9-4d60fda3bc31"><rect height="75" width="100" y="0" x="0" class="er entityBox"/><text style="dominant-baseline: middle; text-anchor: middle; font-size: 12px;" transform="translate(50,37.5)" y="0" x="0" id="text-entity-UpdateLike-433c5fbc-5c28-57f3-8fc9-4d60fda3bc31" class="er entityLabel">UpdateLike</text></g><g transform="translate(958.41015625,370 )" id="entity-UpdateRelation-85b2cc1a-7f74-51a6-b1a7-0e7ba0f57281"><rect height="75" width="112.828125" y="0" x="0" class="er entityBox"/><text style="dominant-baseline: middle; text-anchor: middle; font-size: 12px;" transform="translate(56.4140625,37.5)" y="0" x="0" id="text-entity-UpdateRelation-85b2cc1a-7f74-51a6-b1a7-0e7ba0f57281" class="er entityLabel">UpdateRelation</text></g><rect height="14" width="17.71875" y="130.5645751953125" x="690.2835693359375" class="er relationshipLabelBox"/><text style="text-anchor: middle; dominant-baseline: middle; font-size: 12px;" y="137.5645751953125" x="699.1429443359375" id="rel1" class="er relationshipLabel">has</text><rect height="14" width="71.203125" y="145.80213928222656" x="51.66106414794922" class="er relationshipLabelBox"/><text style="text-anchor: middle; dominant-baseline: middle; font-size: 12px;" y="152.80213928222656" x="87.26262664794922" id="rel2" class="er relationshipLabel">status_config</text><rect height="14" width="79.09375" y="145.80215454101562" x="224.76852416992188" class="er relationshipLabelBox"/><text style="text-anchor: middle; dominant-baseline: middle; font-size: 12px;" y="152.80215454101562" x="264.3153991699219" id="rel3" class="er relationshipLabel">priority_config</text><rect height="14" width="60.34375" y="175.1639404296875" x="487.35357666015625" class="er relationshipLabelBox"/><text style="text-anchor: middle; dominant-baseline: middle; font-size: 12px;" y="182.1639404296875" x="517.5254516601562" id="rel4" class="er relationshipLabel">created_by</text><rect height="14" width="17.71875" y="138" x="475.921630859375" class="er relationshipLabelBox"/><text style="text-anchor: middle; dominant-baseline: middle; font-size: 12px;" y="145" x="484.781005859375" id="rel5" class="er relationshipLabel">has</text><rect height="14" width="17.71875" y="276.19281005859375" x="550.2861938476562" class="er relationshipLabelBox"/><text style="text-anchor: middle; dominant-baseline: middle; font-size: 12px;" y="283.19281005859375" x="559.1455688476562" id="rel6" class="er relationshipLabel">has</text><rect height="14" width="17.71875" y="280.3469543457031" x="656.251708984375" class="er relationshipLabelBox"/><text style="text-anchor: middle; dominant-baseline: middle; font-size: 12px;" y="287.3469543457031" x="665.111083984375" id="rel7" class="er relationshipLabel">has</text><rect height="14" width="17.71875" y="296.6890869140625" x="761.668701171875" class="er relationshipLabelBox"/><text style="text-anchor: middle; dominant-baseline: middle; font-size: 12px;" y="303.6890869140625" x="770.528076171875" id="rel8" class="er relationshipLabel">has</text><rect height="14" width="17.71875" y="331.02569580078125" x="1038.3179931640625" class="er relationshipLabelBox"/><text style="text-anchor: middle; dominant-baseline: middle; font-size: 12px;" y="338.02569580078125" x="1047.1773681640625" id="rel9" class="er relationshipLabel">has</text><rect height="14" width="35.015625" y="287.77679443359375" x="1011.004150390625" class="er relationshipLabelBox"/><text style="text-anchor: middle; dominant-baseline: middle; font-size: 12px;" y="294.77679443359375" x="1028.511962890625" id="rel10" class="er relationshipLabel">source</text><rect height="14" width="33.0625" y="285.2525634765625" x="1067.4332275390625" class="er relationshipLabelBox"/><text style="text-anchor: middle; dominant-baseline: middle; font-size: 12px;" y="292.2525634765625" x="1083.9644775390625" id="rel11" class="er relationshipLabel">target</text><rect height="14" width="60.34375" y="130.56442260742188" x="840.2473754882812" class="er relationshipLabelBox"/><text style="text-anchor: middle; dominant-baseline: middle; font-size: 12px;" y="137.56442260742188" x="870.4192504882812" id="rel12" class="er relationshipLabel">created_by</text><rect height="14" width="35.28125" y="214.05902099609375" x="1303.4156494140625" class="er relationshipLabelBox"/><text style="text-anchor: middle; dominant-baseline: middle; font-size: 12px;" y="221.05902099609375" x="1321.0562744140625" id="rel13" class="er relationshipLabel">author</text><rect height="14" width="22.625" y="124.96482849121094" x="1254.587646484375" class="er relationshipLabelBox"/><text style="text-anchor: middle; dominant-baseline: middle; font-size: 12px;" y="131.96482849121094" x="1265.900146484375" id="rel14" class="er relationshipLabel">user</text></svg>
